# Blender v2.81 (sub 16) OBJ File: ''
# www.blender.org
mtllib picture M.mtl
o Picture_M_Cube.002
v 3.183654 4.957193 -8.771485
v 3.183654 0.046261 -8.771485
v 1.186155 4.957193 -4.159641
v 1.186155 0.046261 -4.159641
v 3.248100 4.754640 -8.517672
v 3.248100 0.248814 -8.517672
v 1.415376 4.754640 -4.286262
v 1.415376 0.248814 -4.286262
v 3.277490 4.807675 -8.564091
v 3.255204 4.754640 -8.514594
v 3.258456 4.761393 -8.520718
v 3.255204 0.248814 -8.514594
v 3.277490 0.195779 -8.564091
v 3.258456 0.242061 -8.520718
v 1.422480 4.754640 -4.283184
v 1.401623 4.807675 -4.233069
v 1.420238 4.761393 -4.276624
v 1.401623 0.195779 -4.233069
v 1.422480 0.248814 -4.283184
v 1.420238 0.242061 -4.276624
v 3.353813 4.997074 -8.742264
v 3.332956 4.944039 -8.692149
v 3.351572 4.990321 -8.735703
v 3.332956 0.059415 -8.692149
v 3.353813 0.006380 -8.742264
v 3.351572 0.013133 -8.735703
v 1.346157 4.944039 -4.105011
v 1.323871 4.997074 -4.055515
v 1.327123 4.990321 -4.061638
v 1.323871 0.006380 -4.055515
v 1.346157 0.059415 -4.105011
v 1.327123 0.013133 -4.061638
v 3.345150 4.974018 -8.720303
v 3.345150 0.029436 -8.720303
v 1.333963 0.029436 -4.076858
v 1.333963 4.974018 -4.076858
v 3.265296 0.225758 -8.535936
v 3.265296 4.777696 -8.535936
v 1.413816 4.777696 -4.261223
v 1.413816 0.225758 -4.261223
v 3.333787 4.944039 -8.691790
v 3.278321 4.807675 -8.563730
v 3.278321 0.195779 -8.563730
v 3.333787 0.059415 -8.691790
v 1.346988 4.944039 -4.104650
v 1.402454 4.807675 -4.232710
v 1.402454 0.195779 -4.232710
v 1.346988 0.059415 -4.104650
v 3.329373 4.932293 -8.680601
v 3.329373 0.071161 -8.680601
v 1.352130 0.071161 -4.115523
v 1.352130 4.932293 -4.115523
v 3.283463 0.184033 -8.574603
v 3.283463 4.819421 -8.574603
v 1.398040 4.819421 -4.221521
v 1.398040 0.184033 -4.221521
v 3.323221 4.920322 -8.669914
v 3.287049 4.831392 -8.586401
v 3.287049 0.172062 -8.586401
v 3.323221 0.083132 -8.669914
v 1.355716 4.920322 -4.127321
v 1.391888 4.831392 -4.210835
v 1.391888 0.172062 -4.210835
v 1.355716 0.083132 -4.127321
v 3.325871 4.923684 -8.672516
v 3.324400 4.920322 -8.669404
v 3.288228 4.831392 -8.585890
v 3.286965 4.828030 -8.582687
v 3.286965 0.175424 -8.582687
v 3.288228 0.172062 -8.585890
v 3.324400 0.083132 -8.669404
v 3.325871 0.079770 -8.672516
v 1.356895 4.920322 -4.126811
v 1.355632 4.923684 -4.123609
v 1.394538 4.828030 -4.213437
v 1.393067 4.831392 -4.210325
v 1.393067 0.172062 -4.210325
v 1.394538 0.175424 -4.213437
v 1.355632 0.079770 -4.123609
v 1.356895 0.083132 -4.126811
v 3.199875 0.006380 -8.808938
v 1.169933 0.006380 -4.122189
v 1.169933 4.997074 -4.122189
v 3.199875 4.997074 -8.808938
v 3.201436 0.046261 -8.763784
v 1.203937 0.046261 -4.151939
v 1.203937 4.957193 -4.151939
v 3.201436 4.957193 -8.763784
v 1.703312 4.957193 -5.304900
v 2.077843 4.957193 -6.169621
v 1.828155 4.957193 -5.593141
v 2.327530 4.957193 -6.746102
v 2.125060 4.611204 -6.508997
v 2.143094 4.609261 -6.462278
v 2.112285 4.611204 -6.479503
v 2.158700 4.609261 -6.498308
v 2.187081 4.650260 -6.421832
v 2.218292 4.650260 -6.493892
v 2.124554 4.608645 -6.452794
v 2.109857 4.609616 -6.463040
v 2.187081 4.535160 -6.421832
v 2.218292 4.611893 -6.493892
v 2.218292 4.535160 -6.493892
v 2.187081 4.611893 -6.421832
v 2.122632 4.609616 -6.492535
v 2.135407 4.609616 -6.522030
v 2.105898 4.611204 -6.464755
v 2.135292 4.603027 -6.444263
v 2.166502 4.609261 -6.516323
v 2.166502 4.603027 -6.516323
v 2.135292 4.609261 -6.444263
v 2.199539 4.610940 -6.502014
v 2.199539 4.589446 -6.502014
v 2.168328 4.610940 -6.429954
v 2.131448 4.609220 -6.523745
v 2.168328 4.589446 -6.429954
v 2.131448 4.611204 -6.523745
v 2.126591 4.608029 -6.490820
v 2.105898 4.609220 -6.464755
v 2.118673 4.609220 -6.494250
v 2.126591 4.606046 -6.490820
v 2.118673 4.611204 -6.494250
v 2.113816 4.606046 -6.461326
v 2.139366 4.608029 -6.520315
v 2.139366 4.606046 -6.520315
v 2.113816 4.608029 -6.461326
v 2.132978 4.608029 -6.505568
v 2.120203 4.608029 -6.476073
v 2.152934 4.608645 -6.518319
v 2.145839 4.608645 -6.501938
v 2.131649 4.608645 -6.469175
v 2.129019 4.609616 -6.507282
v 2.116244 4.609616 -6.477787
v 2.109857 4.607633 -6.463040
v 2.135407 4.607633 -6.522030
v 2.122632 4.607633 -6.492535
v 2.124554 4.604536 -6.452794
v 2.143094 4.603027 -6.462278
v 2.158700 4.603027 -6.498308
v 2.125060 4.609220 -6.508997
v 2.120203 4.606046 -6.476073
v 2.112285 4.609220 -6.479503
v 2.132978 4.606046 -6.505568
v 2.152934 4.604536 -6.518319
v 2.145839 4.604536 -6.501938
v 2.116244 4.607633 -6.477787
v 2.129019 4.607633 -6.507282
v 2.131649 4.604536 -6.469175
v 3.314107 4.920322 -8.669914
v 3.277936 4.831392 -8.586401
v 3.277936 0.172062 -8.586401
v 3.314107 0.083132 -8.669914
v 1.346602 4.920322 -4.127321
v 1.382774 4.831392 -4.210835
v 1.382774 0.172062 -4.210835
v 1.346602 0.083132 -4.127321
v 3.349604 4.974018 -8.718373
v 3.349604 0.029436 -8.718373
v 1.338418 0.029436 -4.074928
v 1.338418 4.974018 -4.074928
v 3.337410 4.944039 -8.690220
v 3.337410 0.059415 -8.690220
v 1.350612 0.059415 -4.103081
v 1.350612 4.944039 -4.103081
v 3.263827 0.225758 -8.536573
v 3.263827 4.777696 -8.536573
v 1.412347 4.777696 -4.261860
v 1.412347 0.225758 -4.261860
v 3.276021 0.195779 -8.564727
v 3.276021 4.807675 -8.564727
v 1.400153 4.807675 -4.233706
v 1.400153 0.195779 -4.233706
vt 20.208546 -52.293617
vt 13.960418 -53.381618
vt 79.707916 -3.075377
vt 78.532478 -2.912464
vt -2.043418 3.065742
vt -2.043418 -3.099145
vt -1.082939 -3.099145
vt -1.082939 3.065742
vt -77.503960 -3.075377
vt -58.397388 53.293613
vt -64.645531 54.381626
vt -78.679398 -2.912464
vt 6.271344 2.811470
vt 6.271344 -2.844872
vt 5.887625 -2.844872
vt 5.887625 2.811470
vt 1.360862 -0.305246
vt -0.360862 -0.305246
vt -0.360862 1.305247
vt 1.360862 1.305247
vt 6.271344 3.765965
vt 6.271344 -1.890377
vt 5.887625 -1.890377
vt 5.887625 3.765965
vt 1.101978 4.075382
vt -0.073465 3.912453
vt 6.368864 -1.986727
vt 6.368864 3.862314
vt 6.305197 3.862314
vt 6.305197 -1.986727
vt 6.271344 -1.890377
vt 6.271344 3.765965
vt 5.887625 3.765965
vt 5.887625 -1.890377
vt 6.309935 -1.956954
vt 6.309935 3.832542
vt 6.354831 3.832542
vt 6.354831 -1.956954
vt 6.309935 3.832542
vt 6.309935 -1.956954
vt 6.354831 -1.956954
vt 6.354831 3.832542
vt 6.309935 2.878046
vt 6.309935 -2.911449
vt 6.354831 -2.911449
vt 6.354831 2.878046
vt 5.997757 3.086864
vt 5.997757 -3.120266
vt 6.025044 -3.140732
vt 6.025044 3.107329
vt 6.298632 3.107329
vt 6.298632 -3.140732
vt 6.271344 -3.149209
vt 6.271344 3.115807
vt 6.271344 3.115807
vt 6.271344 -3.149209
vt 6.298632 -3.140732
vt 6.298632 3.107329
vt -2.305703 3.107329
vt -2.305703 -3.140732
vt -2.278415 -3.120266
vt -2.278415 3.086864
vt 6.271344 4.070301
vt 6.271344 -2.194714
vt 6.298632 -2.186236
vt 6.298632 4.061824
vt 6.271344 -2.194714
vt 6.271344 4.070301
vt 6.298632 4.061824
vt 6.298632 -2.186236
vt 6.271344 2.811470
vt 6.271344 -2.844872
vt 6.298632 -2.853350
vt 6.298632 2.819947
vt 5.641867 2.819947
vt 5.641867 -2.853350
vt 5.669154 -2.873815
vt 5.669154 2.840413
vt -1.949814 2.840413
vt -1.949814 -2.873815
vt -1.922526 -2.853350
vt -1.922526 2.819947
vt 6.298632 2.819947
vt 6.298632 -2.853350
vt 6.298632 3.774442
vt 6.298632 -1.898854
vt 6.298632 -1.898854
vt 6.298632 3.774442
vt 5.887625 2.811470
vt 5.887625 -2.844872
vt -2.278415 -3.120266
vt -2.278415 3.086864
vt 6.309935 3.049229
vt 6.309935 -3.082632
vt 6.309935 -3.082632
vt 6.309935 3.049229
vt 6.309935 -2.128136
vt 6.309935 4.003724
vt 6.309935 4.003724
vt 6.309935 -2.128136
vt 5.997757 -3.120266
vt -1.949814 -2.873815
vt 5.669154 -2.873815
vt 5.669154 2.840413
vt -1.949814 2.840413
vt 6.309935 2.878046
vt 6.309935 -2.911449
vt 6.309935 -2.128136
vt 6.309935 4.003724
vt 6.354831 4.003724
vt 6.354831 -2.128136
vt 6.309935 -2.911449
vt 6.309935 2.878046
vt 6.354831 2.878046
vt 6.354831 -2.911449
vt 6.354831 -2.128136
vt 6.354831 4.003724
vt 6.354831 3.049229
vt 6.354831 -3.082632
vt -2.194166 3.023677
vt 5.913508 3.023677
vt 5.927918 3.034483
vt -2.208576 3.034483
vt 6.309935 3.049229
vt 6.309935 -3.082632
vt 6.354831 -3.082632
vt 6.354831 3.049229
vt 5.753405 2.903599
vt -2.034063 2.903599
vt -2.019653 2.892791
vt 5.738995 2.892791
vt 6.374491 3.034483
vt 6.374491 -3.067887
vt 6.374491 -3.067887
vt 6.374491 3.034483
vt 6.374491 -2.113391
vt 6.374491 3.988981
vt 6.374491 3.988981
vt 6.374491 -2.113391
vt 6.374491 -2.926195
vt 6.374491 2.892791
vt 6.374491 2.892791
vt 6.374491 -2.926195
vt 6.374491 3.847288
vt 6.374491 -1.971699
vt 6.374491 -1.971699
vt 6.374491 3.847288
vt 6.368864 2.907820
vt 6.368864 -2.941222
vt 6.305197 -2.941222
vt 6.305197 2.907820
vt 6.368864 3.973952
vt 6.368864 -2.098364
vt 6.305197 -2.098364
vt 6.305197 3.973952
vt 6.368864 -2.941222
vt 6.368864 2.907820
vt 6.305197 2.907820
vt 6.305197 -2.941222
vt 6.368864 -3.052860
vt 6.368864 3.019456
vt 6.305197 3.019456
vt 6.305197 -3.052860
vt 6.368864 3.019456
vt 6.368864 -3.052860
vt 6.305197 -3.052860
vt 6.305197 3.019456
vt 6.368864 3.862314
vt 6.368864 -1.986727
vt 6.305197 -1.986727
vt 6.305197 3.862314
vt 5.753405 -2.937001
vt 5.738995 -2.926195
vt 6.368864 -2.098364
vt 6.368864 3.973952
vt 6.305197 3.973952
vt 6.305197 -2.098364
vt 6.305197 -3.052860
vt 6.305197 3.019456
vt 6.305197 3.973952
vt 6.305197 -2.098364
vt 6.305197 2.907820
vt 6.305197 -2.941222
vt 6.305197 -1.986727
vt 6.305197 3.862314
vt -2.034063 -2.937001
vt -2.019653 -2.926195
vt 5.913508 -3.057080
vt -2.194166 -3.057080
vt -2.208576 -3.067887
vt 5.927918 -3.067887
vt 6.374491 -3.057080
vt 6.374491 3.023677
vt 6.374491 3.023677
vt 6.374491 -3.057080
vt 6.374491 3.978173
vt 6.374491 -2.102584
vt 6.374491 -2.102584
vt 6.374491 3.978173
vt 6.374491 2.903599
vt 6.374491 -2.937001
vt 6.374491 -2.937001
vt 6.374491 2.903599
vt 6.374491 -1.982507
vt 6.374491 3.858094
vt 6.374491 3.858094
vt 6.374491 -1.982507
vt -2.250254 -3.099145
vt 5.969596 -3.099145
vt 6.036347 -3.149209
vt -2.317006 -3.149209
vt -2.250254 3.065742
vt -2.317006 3.115807
vt 5.969596 3.065742
vt 6.036347 3.115807
vt -2.043418 4.020238
vt -2.043418 -2.144650
vt -1.082939 -2.144650
vt -1.082939 4.020238
vt -2.043418 -2.144650
vt -2.043418 4.020238
vt -1.082939 4.020238
vt -1.082939 1.323099
vt -1.082939 0.552488
vt -1.082939 -0.218122
vt -1.082939 -0.603428
vt -1.082939 -2.144650
vt -2.043418 -3.099145
vt -2.043418 3.065742
vt -1.082939 3.065742
vt -1.082939 -3.099145
vt -1.082939 2.632274
vt -1.082939 2.535947
vt -2.095869 2.604094
vt -2.095869 2.631077
vt 1.859671 2.624933
vt 1.885956 2.624933
vt 1.885956 2.627422
vt 1.859671 2.627422
vt -3.880291 2.621144
vt -3.880291 2.628970
vt -4.536724 2.623038
vt -5.193157 2.624933
vt -5.193157 2.627422
vt -4.536724 2.628196
vt -4.536724 2.623038
vt -5.193157 2.624933
vt -5.193157 2.627422
vt -4.536724 2.628196
vt -3.880291 2.621144
vt -3.880291 2.628970
vt -2.039690 2.907820
vt 5.759031 2.907820
vt 5.907881 3.019456
vt -2.188540 3.019456
vt 5.759031 -2.941222
vt -2.039690 -2.941222
vt -2.188540 -3.052860
vt 5.907881 -3.052860
vt 6.305197 3.862314
vt 6.305197 -1.986727
vt 6.305197 -2.941222
vt 6.305197 2.907820
vt 6.305197 -2.098364
vt 6.305197 3.973952
vt 6.305197 3.019456
vt 6.305197 -3.052860
vt 5.947577 3.049229
vt 5.947577 -3.082632
vt 5.997757 3.086864
vt -2.228236 -3.082632
vt -2.228236 3.049229
vt 6.309935 -2.128136
vt 6.309935 4.003724
vt 6.309935 3.049229
vt 6.309935 -3.082632
vt 5.719334 -2.911449
vt 5.719334 2.878046
vt -1.999993 2.878046
vt -1.999993 -2.911449
vt 6.309935 3.832542
vt 6.309935 -1.956954
vt 6.309935 -2.911449
vt 6.309935 2.878046
vt 6.309935 -1.956954
vt 6.309935 3.832542
vt 0.788437 0.000000
vt 0.788437 1.000000
vt 0.211563 1.000000
vt 0.211563 0.000000
vt 5.969596 3.065742
vt 5.969596 -3.099145
vt -2.250254 -3.099145
vt -2.250254 3.065742
vt -0.195292 3.065742
vt 0.318449 3.065742
vt 1.345930 3.065742
vt 1.795453 2.680437
vt 1.795453 2.632274
vt 1.795453 2.535947
vt 1.923888 2.535947
vt 1.923888 2.632274
vt 1.923888 2.680437
vt 2.373411 3.065742
vt -2.095869 0.889631
vt -3.880291 0.889631
vt -3.880291 0.913712
vt -3.880291 0.961876
vt -3.880291 0.985956
vt -2.095869 0.985956
vt -5.407001 0.937794
vt -5.407001 0.957508
vt -5.620843 0.957508
vt -5.620843 0.937794
vt -5.193157 2.624933
vt -4.536724 2.623038
vt -4.536724 2.628196
vt -5.193157 2.627422
vt -3.880291 0.889631
vt -3.880291 0.913712
vt -4.536724 0.915897
vt -4.536724 0.893999
vt -1.082939 0.985956
vt -2.095869 0.985956
vt -2.095869 0.889631
vt -1.082939 0.889631
vt -5.193157 0.918080
vt -5.193157 0.898367
vt -5.407001 2.626925
vt -5.620843 2.628918
vt -5.620843 2.631407
vt -5.407001 2.629416
vt -1.082939 0.985956
vt -1.082939 0.889631
vt -3.880291 0.985956
vt -3.880291 0.961876
vt -3.880291 2.621144
vt -3.880291 2.628970
vt -4.536724 2.628196
vt -5.193157 2.627422
vt -5.193157 2.624933
vt -4.536724 2.623038
vt 1.859671 2.628918
vt 1.859671 2.631407
vt 1.885956 2.631407
vt 1.912241 2.631407
vt 1.912241 2.628918
vt 1.885956 2.628918
vt 1.807101 2.628918
vt 1.807101 2.631407
vt 1.833386 2.631407
vt 1.833386 2.628918
vt -1.082939 2.535947
vt -1.082939 2.632274
vt -2.095869 2.631077
vt -2.095869 2.604094
vt -4.536724 0.915897
vt -4.536724 0.893999
vt -5.193157 0.898367
vt -5.193157 0.918080
vt 1.891779 2.621144
vt 1.827562 2.621144
vt 1.827562 2.628970
vt 1.891779 2.628970
vt -5.407001 0.957508
vt -5.407001 0.937794
vt -5.620843 0.937794
vt -5.620843 0.957508
vt -5.407001 2.629416
vt -5.620843 2.631407
vt -5.620843 2.628918
vt -5.407001 2.626925
vt 1.833386 2.624933
vt 1.833386 2.627422
vt -5.407001 0.918080
vt -5.620843 0.918080
vt -5.407001 0.977221
vt -5.620843 0.977221
vt -5.407001 0.918080
vt -5.407001 0.898367
vt -5.620843 0.898367
vt -5.620843 0.918080
vt -4.536724 0.981589
vt -4.536724 0.959691
vt -5.193157 0.977221
vt -5.193157 0.957508
vt -5.193157 0.937794
vt -5.407001 0.898367
vt -5.620843 0.898367
vt -4.536724 0.981589
vt -4.536724 0.959691
vt -5.193157 0.957508
vt -5.193157 0.977221
vt -5.193157 0.937794
vt -5.407001 0.977221
vt -5.620843 0.977221
vt -3.880291 2.621144
vt -3.880291 2.628970
vn 0.0000 -1.0000 -0.0000
vn -0.3974 0.0000 0.9176
vn 0.3975 0.0000 -0.9176
vn 0.0000 1.0000 0.0000
vn 0.3974 0.0000 -0.9176
vn 0.0000 1.0000 0.0002
vn -0.3981 0.0000 0.9174
vn 0.9230 0.0000 0.3849
vn 0.9463 0.0000 0.3233
vn 0.8832 0.0000 0.4691
vn 0.9121 0.0000 0.4100
vn 0.9146 0.0812 0.3961
vn 0.9175 0.0140 0.3974
vn 0.9146 -0.0812 0.3961
vn 0.9175 -0.0140 0.3974
vn 0.8832 0.0000 0.4690
vn -0.3975 0.0000 0.9176
vn 0.3977 0.0000 -0.9175
vn -0.3973 0.0000 0.9177
vn 0.3969 0.0000 -0.9179
vn 0.9176 0.0000 0.3974
vn -0.3978 0.0000 0.9175
vn 0.9302 0.0000 0.3669
vn 0.9040 0.0000 0.4275
vn 0.9171 0.0338 0.3972
vn 0.9171 -0.0338 0.3972
vn -0.3972 0.0000 0.9177
vn 0.3972 0.0000 -0.9177
vn 0.9176 0.0000 0.3975
vn 0.0000 0.0000 -1.0000
vn 0.0000 0.0000 1.0000
vn 0.9041 0.0000 0.4274
vn 0.9302 0.0000 0.3670
vn 0.9171 -0.0338 0.3973
vn 0.9303 0.0000 0.3668
vn 0.9040 0.0000 0.4276
vn -0.9176 0.0000 -0.3974
vn -0.9176 -0.0000 -0.3975
vn 0.1455 0.0000 -0.9894
vn 0.5161 0.0000 -0.8565
vn 0.5162 0.0000 -0.8565
vn -0.3239 -0.9356 -0.1403
vn 0.3169 0.9385 0.1373
vn -0.2717 0.0000 0.9624
vn -0.0426 0.9989 -0.0185
vn -0.0428 0.9989 -0.0185
vn -0.8588 -0.3523 -0.3720
vn -0.0427 0.9989 -0.0185
vn -0.6221 0.0000 0.7830
vn -0.1039 -0.9936 -0.0450
vn -0.3169 -0.9385 -0.1373
vn 0.3168 0.9385 0.1372
vn -0.3168 -0.9385 -0.1372
vn 0.3169 0.9385 0.1372
g Picture_M_Cube.002_Marco
usemtl Marco
s off
f 81/1/1 25/2/1 30/3/1 82/4/1
f 1/5/2 2/6/2 85/7/2 88/8/2
f 30/9/2 28/10/2 83/11/2 82/12/2
f 15/13/3 19/14/3 8/15/3 7/16/3
f 21/17/4 84/18/4 83/19/4 28/20/4
f 10/21/1 15/22/1 7/23/1 5/24/1
f 81/1/5 84/25/5 21/26/5 25/2/5
f 76/27/6 67/28/6 58/29/6 62/30/6
f 19/31/4 12/32/4 6/33/4 8/34/4
f 16/35/1 9/36/1 42/37/1 46/38/1
f 13/39/4 18/40/4 47/41/4 43/42/4
f 9/43/7 13/44/7 43/45/7 42/46/7
f 33/47/8 34/48/8 26/49/8 23/50/8
f 23/51/9 26/52/9 25/53/9 21/54/9
f 28/55/10 30/56/10 32/57/10 29/58/10
f 29/59/11 32/60/11 35/61/11 36/62/11
f 21/63/12 28/64/12 29/65/12 23/66/12
f 23/50/13 29/59/13 36/62/13 33/47/13
f 30/67/14 25/68/14 26/69/14 32/70/14
f 32/60/15 26/49/15 34/48/15 35/61/15
f 10/71/16 12/72/16 14/73/16 11/74/16
f 11/75/11 14/76/11 37/77/11 38/78/11
f 39/79/8 40/80/8 20/81/8 17/82/8
f 17/83/9 20/84/9 19/14/9 15/13/9
f 38/78/15 39/79/15 17/82/15 11/75/15
f 11/85/14 17/86/14 15/22/14 10/21/14
f 40/80/13 37/77/13 14/76/13 20/81/13
f 20/87/12 14/88/12 12/32/12 19/31/12
f 12/72/17 10/71/17 5/89/17 6/90/17
f 36/62/2 35/61/2 159/91/2 160/92/2
f 22/93/17 24/94/17 162/95/17 161/96/17
f 27/97/1 22/98/1 161/99/1 164/100/1
f 35/61/1 34/48/1 158/101/1 159/91/1
f 37/77/1 40/80/1 168/102/1 165/103/1
f 38/78/18 37/77/18 165/103/18 166/104/18
f 40/80/17 39/79/17 167/105/17 168/102/17
f 13/44/19 9/43/19 170/106/19 169/107/19
f 31/108/1 24/109/1 44/110/1 48/111/1
f 18/112/20 16/113/20 46/114/20 47/115/20
f 22/98/4 27/97/4 45/116/4 41/117/4
f 24/94/3 22/93/3 41/118/3 44/119/3
f 74/120/21 65/121/21 49/122/21 52/123/21
f 27/124/22 31/125/22 48/126/22 45/127/22
f 68/128/21 75/129/21 55/130/21 54/131/21
f 49/132/23 50/133/23 44/119/23 41/118/23
f 51/134/24 52/135/24 45/127/24 48/126/24
f 52/136/25 49/137/25 41/117/25 45/116/25
f 50/138/26 51/139/26 48/111/26 44/110/26
f 53/140/24 54/141/24 42/46/24 43/45/24
f 55/142/23 56/143/23 47/115/23 46/114/23
f 54/144/26 55/145/26 46/38/26 42/37/26
f 56/146/25 53/147/25 43/42/25 47/41/25
f 67/148/18 70/149/18 59/150/18 58/151/18
f 66/152/1 73/153/1 61/154/1 57/155/1
f 77/156/2 76/157/2 62/158/2 63/159/2
f 71/160/27 66/161/27 57/162/27 60/163/27
f 73/164/28 80/165/28 64/166/28 61/167/28
f 70/168/1 77/169/1 63/170/1 59/171/1
f 69/172/29 68/128/29 54/131/29 53/173/29
f 80/174/4 71/175/4 60/176/4 64/177/4
f 61/167/30 64/166/30 156/178/30 153/179/30
f 64/177/4 60/176/4 152/180/4 156/181/4
f 63/159/31 62/158/31 154/182/31 155/183/31
f 59/171/1 63/170/1 155/184/1 151/185/1
f 78/186/21 69/172/21 53/173/21 56/187/21
f 75/129/21 78/186/21 56/187/21 55/130/21
f 72/188/21 79/189/21 51/190/21 50/191/21
f 79/189/21 74/120/21 52/123/21 51/190/21
f 66/161/32 71/160/32 72/192/32 65/193/32
f 80/165/33 73/164/33 74/194/33 79/195/33
f 73/153/34 66/152/34 65/196/34 74/197/34
f 71/175/25 80/174/25 79/198/25 72/199/25
f 70/149/35 67/148/35 68/200/35 69/201/35
f 76/157/36 77/156/36 78/202/36 75/203/36
f 67/28/25 76/27/25 75/204/25 68/205/25
f 77/169/26 70/168/26 69/206/26 78/207/26
f 65/121/29 72/188/29 50/191/29 49/122/29
f 4/208/37 2/209/37 81/210/37 82/211/37
f 3/212/37 4/208/37 82/211/37 83/213/37
f 2/209/37 1/214/37 84/215/37 81/210/37
f 1/214/38 3/212/38 83/213/38 84/215/38
f 2/216/4 4/217/4 86/218/4 85/219/4
f 3/220/1 1/221/1 88/222/1 92/223/1 90/224/1 91/225/1 89/226/1 87/227/1
f 4/228/5 3/229/5 87/230/5 86/231/5
f 102/232/5 103/233/5 113/234/5 112/235/5
f 121/236/29 143/237/29 127/238/29 118/239/29
f 112/235/5 113/234/5 110/240/5 109/241/5
f 109/241/39 110/240/39 144/242/39 125/243/39 124/244/39 129/245/39
f 148/246/40 141/247/40 128/248/40 131/249/40
f 138/250/41 148/246/41 131/249/41 94/251/41
f 154/252/21 150/253/21 149/254/21 153/255/21
f 151/256/21 155/257/21 156/258/21 152/259/21
f 155/257/21 154/252/21 153/255/21 156/258/21
f 150/253/21 151/256/21 152/259/21 149/254/21
f 62/30/4 58/29/4 150/260/4 154/261/4
f 58/151/30 59/150/30 151/262/30 150/263/30
f 57/155/1 61/154/1 153/264/1 149/265/1
f 60/163/31 57/162/31 149/266/31 152/267/31
f 161/268/29 162/269/29 158/101/29 157/270/29
f 163/271/21 164/272/21 160/92/21 159/91/21
f 164/272/21 161/268/21 157/270/21 160/92/21
f 162/269/21 163/271/21 159/91/21 158/101/21
f 24/109/4 31/108/4 163/273/4 162/274/4
f 31/125/3 27/124/3 164/275/3 163/276/3
f 33/47/4 36/62/4 160/92/4 157/270/4
f 34/48/5 33/47/5 157/270/5 158/101/5
f 169/277/21 170/278/21 166/104/21 165/103/21
f 171/279/21 172/280/21 168/102/21 167/105/21
f 170/278/21 171/279/21 167/105/21 166/104/21
f 172/280/21 169/277/21 165/103/21 168/102/21
f 18/40/4 13/39/4 169/281/4 172/282/4
f 16/113/3 18/112/3 172/283/3 171/284/3
f 39/79/4 38/78/4 166/104/4 167/105/4
f 9/36/1 16/35/1 171/285/1 170/286/1
g Picture_M_Cube.002_Cuadro.002
usemtl Cuadro.002
f 6/287/21 5/288/21 7/289/21 8/290/21
g Picture_M_Cube.002_Fabric_Rough_01
usemtl Fabric_Rough_01
f 88/291/37 85/292/37 86/293/37 87/294/37 89/295/37 91/296/37 90/297/37 97/298/37 104/299/37 101/300/37 103/301/37 102/302/37 98/303/37 92/304/37
f 90/297/37 92/304/37 98/303/37 97/298/37
f 97/298/37 98/303/37 102/302/37 104/299/37
g Picture_M_Cube.002_Grap
usemtl Grap
f 116/305/42 108/306/42 138/307/42 139/308/42 110/309/42 113/310/42
f 105/311/43 132/312/43 93/313/43 122/314/43
f 143/315/44 145/316/44 130/317/44 127/318/44
f 111/319/45 94/320/45 131/321/45 99/322/45
f 102/323/46 112/324/46 114/325/46 104/326/46
f 99/322/45 131/321/45 128/327/45 126/328/45
f 124/244/3 125/243/3 135/329/3 115/330/3 117/331/3 106/332/3
f 103/333/47 101/334/47 116/305/47 113/310/47
f 114/325/48 112/324/48 109/335/48 96/336/48 94/320/48 111/319/48
f 108/337/49 111/338/49 99/339/49 126/340/49 123/341/49 137/342/49
f 120/343/37 122/344/37 93/345/37 117/346/37 115/347/37 140/348/37
f 119/349/37 107/350/37 95/351/37 122/344/37 120/343/37 142/352/37
f 101/353/2 104/354/2 114/355/2 116/356/2
f 148/357/50 137/358/50 123/359/50 141/360/50
f 116/356/2 114/355/2 111/338/2 108/337/2
f 139/361/37 138/362/37 94/363/37 96/364/37
f 147/365/51 136/366/51 120/367/51 140/368/51
f 123/341/2 126/340/2 100/369/2 107/370/2 119/371/2 134/372/2
f 141/373/29 121/236/29 118/239/29 128/374/29
f 133/375/52 105/311/52 122/314/52 95/376/52
f 132/312/52 106/377/52 117/378/52 93/313/52
f 146/379/53 134/380/53 119/381/53 142/382/53
f 96/336/45 109/335/45 129/383/45 130/384/45
f 130/384/45 129/383/45 124/385/45 127/386/45
f 118/387/52 127/386/52 132/312/52 105/311/52
f 127/386/52 124/385/52 106/377/52 132/312/52
f 100/388/52 133/375/52 95/376/52 107/389/52
f 126/328/54 128/327/54 133/375/54 100/388/54
f 128/327/52 118/387/52 105/311/52 133/375/52
f 144/390/50 145/391/50 143/392/50 125/393/50
f 110/309/50 139/308/50 145/391/50 144/390/50
f 136/366/53 146/379/53 142/382/53 120/367/53
f 121/394/53 141/360/53 146/379/53 136/366/53
f 141/360/53 123/359/53 134/380/53 146/379/53
f 135/395/53 147/365/53 140/368/53 115/396/53
f 125/393/53 143/392/53 147/365/53 135/395/53
f 143/392/53 121/394/53 136/366/53 147/365/53
f 145/316/44 139/397/44 96/398/44 130/317/44
f 138/307/50 108/306/50 137/358/50 148/357/50
