# Blender v2.81 (sub 16) OBJ File: ''
# www.blender.org
mtllib picture S.mtl
o Picture_S_Cube.001
v 1.395861 3.949906 2.989649
v 1.395861 0.030838 2.989649
v 2.340699 3.949906 5.621452
v 2.340699 0.030838 5.621452
v 1.535300 3.788263 3.062129
v 1.535300 0.192482 3.062129
v 2.402198 3.788263 5.476833
v 2.402198 0.192482 5.476833
v 1.530447 3.830586 3.031786
v 1.540161 3.788263 3.060384
v 1.539208 3.793652 3.056641
v 1.540161 0.192482 3.060384
v 1.530447 0.150158 3.031786
v 1.539208 0.187092 3.056641
v 2.407059 3.788263 5.475088
v 2.417752 3.830586 5.503334
v 2.408704 3.793652 5.478582
v 2.417752 0.150158 5.503334
v 2.407059 0.192482 5.475088
v 2.408704 0.187092 5.478582
v 1.493518 3.981732 2.930462
v 1.504211 3.939409 2.958708
v 1.495163 3.976343 2.933957
v 1.504211 0.041336 2.958708
v 1.493518 -0.000988 2.930462
v 1.495163 0.004401 2.933957
v 2.443987 3.939409 5.576412
v 2.453702 3.981732 5.605010
v 2.452749 3.976343 5.601267
v 2.453702 -0.000988 5.605010
v 2.443987 0.041336 5.576412
v 2.452749 0.004401 5.601267
v 1.498443 3.963333 2.942642
v 1.498443 0.017411 2.942642
v 2.449755 0.017411 5.592479
v 2.449755 3.963333 5.592479
v 1.536214 0.174082 3.047853
v 1.536214 3.806662 3.047853
v 2.411984 3.806662 5.487268
v 2.411984 0.174082 5.487268
v 1.506948 3.939409 2.958504
v 1.531015 3.830586 3.031582
v 1.531015 0.150158 3.031582
v 1.506948 0.041336 2.958504
v 2.446724 3.939409 5.576208
v 2.418320 3.830586 5.503130
v 2.418320 0.150158 5.503130
v 2.446724 0.041336 5.576208
v 1.509457 3.930035 2.964709
v 1.509457 0.050709 2.964709
v 2.444713 0.050709 5.569824
v 2.444713 3.930035 5.569824
v 1.529005 0.140784 3.025198
v 1.529005 3.839960 3.025198
v 2.420829 3.839960 5.509336
v 2.420829 0.140784 5.509336
v 1.506661 3.920482 2.971440
v 1.523770 3.849513 3.019098
v 1.523770 0.131231 3.019098
v 1.506661 0.060262 2.971440
v 2.437311 3.920482 5.563724
v 2.420202 3.849513 5.516066
v 2.420202 0.131231 5.516066
v 2.437311 0.060262 5.563724
v 1.508945 3.923165 2.969323
v 1.509520 3.920482 2.971150
v 1.526630 3.849513 3.018808
v 1.527348 3.846830 3.020585
v 1.527348 0.133914 3.020585
v 1.526630 0.131231 3.018808
v 1.509520 0.060262 2.971150
v 1.508945 0.057579 2.969323
v 2.440171 3.920482 5.563435
v 2.440889 3.923165 5.565210
v 2.422486 3.846830 5.513949
v 2.423061 3.849513 5.515776
v 2.423061 0.131231 5.515776
v 2.422486 0.133914 5.513949
v 2.440889 0.057579 5.565210
v 2.440171 0.060262 5.563435
v 1.388188 -0.000988 2.968276
v 2.348372 -0.000988 5.642824
v 2.348372 3.981732 5.642824
v 1.388188 3.981732 2.968276
v 1.408028 0.030838 2.985281
v 2.352866 0.030838 5.617084
v 2.352866 3.949906 5.617084
v 1.408028 3.949906 2.985281
v 2.116657 3.949906 4.959133
v 1.939499 3.949906 4.465670
v 2.057604 3.949906 4.794645
v 1.821395 3.949906 4.136694
v 1.819940 3.673796 4.313404
v 1.848701 3.672246 4.324184
v 1.825983 3.673796 4.330236
v 1.841320 3.672246 4.303624
v 1.887829 3.704965 4.321743
v 1.873065 3.704965 4.280621
v 1.843407 3.671755 4.335586
v 1.831713 3.672530 4.337679
v 1.887829 3.613111 4.321743
v 1.873065 3.674347 4.280621
v 1.873065 3.613111 4.280621
v 1.887829 3.674347 4.321743
v 1.825670 3.672530 4.320848
v 1.819628 3.672530 4.304016
v 1.829004 3.673796 4.338652
v 1.852392 3.667271 4.334465
v 1.837629 3.672246 4.293343
v 1.837629 3.667271 4.293343
v 1.852392 3.672246 4.334465
v 1.860234 3.673586 4.285228
v 1.860234 3.656433 4.285228
v 1.874997 3.673586 4.326350
v 1.816919 3.672214 4.304988
v 1.874997 3.656433 4.326350
v 1.816919 3.673796 4.304988
v 1.828379 3.671263 4.319875
v 1.829004 3.672214 4.338652
v 1.822961 3.672214 4.321820
v 1.828379 3.669680 4.319875
v 1.822961 3.673796 4.321820
v 1.834422 3.669680 4.336707
v 1.822337 3.671263 4.303043
v 1.822337 3.669680 4.303043
v 1.834422 3.671263 4.336707
v 1.825358 3.671263 4.311459
v 1.831401 3.671263 4.328290
v 1.829983 3.671755 4.298193
v 1.833339 3.671755 4.307541
v 1.840051 3.671755 4.326238
v 1.822649 3.672530 4.312432
v 1.828692 3.672530 4.329263
v 1.831713 3.670947 4.337679
v 1.819628 3.670947 4.304016
v 1.825670 3.670947 4.320848
v 1.843407 3.668476 4.335586
v 1.848701 3.667271 4.324184
v 1.841320 3.667271 4.303624
v 1.819940 3.672214 4.313404
v 1.831401 3.669680 4.328290
v 1.825983 3.672214 4.330236
v 1.825358 3.669680 4.311459
v 1.829983 3.668476 4.298193
v 1.833339 3.668476 4.307541
v 1.828692 3.670947 4.329263
v 1.822649 3.670947 4.312432
v 1.840051 3.668476 4.326238
v 1.493261 3.976343 2.933957
v 1.496541 3.963333 2.942642
v 1.496541 0.017411 2.942642
v 1.493261 0.004401 2.933957
v 2.450846 0.004401 5.601267
v 2.450846 3.976343 5.601267
v 2.447853 3.963333 5.592479
v 2.447853 0.017411 5.592479
v 1.531015 0.150158 3.031582
v 1.529005 0.140784 3.025198
v 1.529005 3.839960 3.025198
v 1.531015 3.830586 3.031582
v 2.418320 3.830586 5.503130
v 2.420829 3.839960 5.509336
v 2.420829 0.140784 5.509336
v 2.418320 0.150158 5.503130
v 1.532599 0.150158 3.031582
v 1.530589 0.140784 3.025198
v 1.530589 3.839960 3.025198
v 1.532599 3.830586 3.031582
v 2.419904 3.830586 5.503130
v 2.422413 3.839960 5.509336
v 2.422413 0.140784 5.509336
v 2.419904 0.150158 5.503130
v 1.539904 0.187092 3.056641
v 1.539904 3.793652 3.056641
v 1.536911 3.806662 3.047853
v 1.536911 0.174082 3.047853
v 2.409400 3.793652 5.478582
v 2.412680 3.806662 5.487268
v 2.412680 0.174082 5.487268
v 2.409400 0.187092 5.478582
vt -1.685114 11.633646
vt -1.509145 11.828843
vt -9.347961 17.362364
vt -9.054005 17.167170
vt -1.629520 3.326950
vt -1.629520 -3.487179
vt -0.833297 -3.487179
vt -0.833297 3.326950
vt 10.651337 17.362364
vt 8.314536 -10.633641
vt 8.490504 -10.828838
vt 10.945293 17.167170
vt 5.263290 3.045900
vt 5.263290 -3.206126
vt 4.945193 -3.206126
vt 4.945193 3.045900
vt 0.945645 -16.167164
vt 0.651688 -16.362364
vt 5.263290 4.100916
vt 5.263290 -2.151111
vt 4.945193 -2.151111
vt 4.945193 4.100916
vt 5.344132 -2.257607
vt 5.344132 4.207413
vt 5.291353 4.207413
vt 5.291353 -2.257607
vt 5.263290 -2.151111
vt 5.263290 4.100916
vt 4.945193 4.100916
vt 4.945193 -2.151111
vt 5.295281 -2.224699
vt 5.295281 4.174504
vt 5.332499 4.174504
vt 5.332499 -2.224699
vt 5.295281 4.174504
vt 5.295281 -2.224699
vt 5.332499 -2.224699
vt 5.332499 4.174504
vt 5.295281 3.119488
vt 5.295281 -3.279716
vt 5.332499 -3.279716
vt 5.332499 3.119488
vt 5.036491 3.350296
vt 5.036491 -3.510523
vt 5.036491 -3.510523
vt 5.036491 3.350296
vt 5.285912 3.372917
vt 5.285912 -3.533144
vt 5.263290 -3.542514
vt 5.263290 3.382287
vt 5.263290 3.382287
vt 5.263290 -3.542514
vt 5.285912 -3.533144
vt 5.285912 3.372917
vt 5.285912 3.372917
vt 5.285912 -3.533144
vt 5.263290 4.437303
vt 5.263290 -2.487499
vt 5.285912 -2.478128
vt 5.285912 4.427933
vt -1.824328 3.350296
vt -1.824328 3.350296
vt 5.263290 -2.487499
vt 5.263290 4.437303
vt 5.285912 4.427933
vt 5.285912 -2.478128
vt 5.285912 4.427933
vt 5.285912 -2.478128
vt 5.263290 3.045900
vt 5.263290 -3.206126
vt 5.285912 -3.215497
vt 5.285912 3.055270
vt 5.285912 -3.215497
vt 5.285912 3.055270
vt 5.285912 3.055270
vt 5.285912 -3.215497
vt 5.285912 -3.215497
vt 5.285912 3.055270
vt 4.764085 3.077891
vt -1.551923 3.077891
vt -1.551923 3.077891
vt 4.764085 3.077891
vt 5.285912 4.110285
vt 5.285912 -2.160481
vt 5.285912 4.110285
vt 5.285912 -2.160481
vt 5.285912 -2.160481
vt 5.285912 4.110285
vt 4.945193 3.045900
vt 4.945193 -3.206126
vt 4.994893 3.308699
vt 4.994893 -3.468926
vt -1.782731 -3.468926
vt -1.782731 3.308699
vt -1.824328 -3.510523
vt 4.805683 -3.279716
vt 4.805683 3.119488
vt 4.764085 -3.238118
vt -1.593520 3.119488
vt -1.593520 -3.279716
vt -1.551923 -3.238118
vt 5.295281 -2.413910
vt 5.295281 4.363714
vt 5.332499 4.363714
vt 5.332499 -2.413910
vt 5.295281 -3.279716
vt 5.295281 3.119488
vt 5.332499 3.119488
vt 5.332499 -3.279716
vt 5.295281 4.363714
vt 5.295281 -2.413910
vt 5.332499 -2.413910
vt 5.332499 4.363714
vt 5.295281 -3.468926
vt 5.295281 3.308699
vt 5.332499 3.308699
vt 5.332499 -3.468926
vt -1.754488 3.280455
vt 4.966650 3.280455
vt 4.978596 3.292401
vt -1.766433 3.292401
vt 5.295281 3.308699
vt 5.295281 -3.468926
vt 5.332499 -3.468926
vt 5.332499 3.308699
vt 4.833926 3.147731
vt -1.621764 3.147731
vt -1.609818 3.135786
vt 4.821980 3.135786
vt 5.348797 3.292401
vt 5.348797 -3.452629
vt 5.348797 -3.452629
vt 5.348797 3.292401
vt 5.348797 -2.397611
vt 5.348797 4.347417
vt 5.348797 4.347417
vt 5.348797 -2.397611
vt 5.332499 4.174504
vt 5.332499 -2.224699
vt 5.332499 -2.224699
vt 5.332499 4.174504
vt -1.609818 3.135786
vt 4.821980 3.135786
vt -1.609818 -3.296013
vt 4.821980 -3.296013
vt 4.821980 -3.296013
vt -1.609818 -3.296013
vt 5.344132 3.152396
vt 5.344132 -3.312624
vt 5.291353 -3.312624
vt 5.291353 3.152396
vt 5.344132 4.330807
vt 5.344132 -2.381001
vt 5.291353 -2.381001
vt 5.291353 4.330807
vt 5.344132 -3.312624
vt 5.344132 3.152396
vt 5.291353 3.152396
vt 5.291353 -3.312624
vt 5.344132 -3.436018
vt 5.344132 3.275790
vt 5.291353 3.275790
vt 5.291353 -3.436018
vt 5.344132 3.275790
vt 5.344132 -3.436018
vt 5.291353 -3.436018
vt 5.291353 3.275790
vt 5.344132 4.207413
vt 5.344132 -2.257607
vt 5.291353 -2.257607
vt 5.291353 4.207413
vt 4.833926 -3.307959
vt 5.344132 -2.381001
vt 5.344132 4.330807
vt 5.291353 4.330807
vt 5.291353 -2.381001
vt -1.626428 3.152396
vt 4.838591 3.152396
vt 4.961986 3.275790
vt -1.749823 3.275790
vt 4.838591 -3.312624
vt -1.626428 -3.312624
vt -1.749823 -3.436018
vt 4.961986 -3.436018
vt -1.621764 -3.307959
vt 4.966650 -3.440682
vt -1.754488 -3.440682
vt -1.766433 -3.452629
vt 4.978596 -3.452629
vt 5.348797 -3.440682
vt 5.348797 3.280455
vt 5.348797 3.280455
vt 5.348797 -3.440682
vt 5.348797 4.335471
vt 5.348797 -2.385666
vt 5.348797 -2.385666
vt 5.348797 4.335471
vt 5.348797 3.147731
vt 5.348797 -3.307959
vt 5.348797 -3.307959
vt 5.348797 3.147731
vt 5.348797 -2.252943
vt 5.348797 4.202747
vt 5.348797 4.202747
vt 5.348797 -2.252943
vt -1.800983 -3.487179
vt 5.013145 -3.487179
vt 5.068482 -3.542514
vt -1.856319 -3.542514
vt -1.800983 3.326950
vt -1.856319 3.382287
vt 5.013145 3.326950
vt 5.068482 3.382287
vt -1.629520 4.381967
vt -1.629520 -2.432162
vt -0.833297 -2.432162
vt -0.833297 4.381967
vt -1.629520 -2.432162
vt -1.629520 4.381967
vt -0.833297 4.381967
vt -0.833297 1.400785
vt -0.833297 0.549019
vt -0.833297 -0.302747
vt -0.833297 -0.728630
vt -0.833297 -2.432162
vt -1.629520 -3.487179
vt -1.629520 3.326950
vt -0.833297 3.326950
vt -0.833297 -3.487179
vt -0.833297 2.847832
vt -0.833297 2.741361
vt -1.673000 2.816686
vt -1.673000 2.846510
vt 1.606082 2.839718
vt 1.627871 2.839718
vt 1.627871 2.842471
vt 1.606082 2.842471
vt -3.152258 2.835530
vt -3.152258 2.844180
vt -3.696431 2.837624
vt -4.240605 2.839718
vt -4.240605 2.842471
vt -3.696431 2.843325
vt -3.696431 2.837624
vt -4.240605 2.839718
vt -4.240605 2.842471
vt -3.696431 2.843325
vt -3.152258 2.835530
vt -3.152258 2.844180
vt 5.059112 -3.533144
vt 5.059112 3.372917
vt -1.846950 3.372917
vt -1.846950 -3.533144
vt -1.824328 -3.510523
vt 5.285912 -3.533144
vt 5.285912 3.372917
vt 5.285912 -2.478128
vt 5.285912 4.427933
vt -1.609818 -3.296013
vt -1.609818 3.135786
vt 5.332499 -3.279716
vt 5.332499 3.119488
vt 5.332499 3.119488
vt 5.332499 -3.279716
vt 5.332499 4.174504
vt 5.332499 -2.224699
vt 5.332499 -2.224699
vt 5.332499 4.174504
vt 5.332499 -3.279716
vt 5.332499 3.119488
vt 5.348797 -3.296013
vt 5.348797 3.135786
vt 5.332499 3.119488
vt 5.332499 -3.279716
vt 5.348797 3.135786
vt 5.348797 -3.296013
vt 5.348797 4.190802
vt 5.348797 -2.240997
vt 5.348797 -2.240997
vt 5.348797 4.190802
vt 4.821980 3.135786
vt 4.821980 -3.296013
vt 4.741464 3.055270
vt 4.741464 -3.215497
vt 4.764085 -3.238118
vt -1.551923 -3.238118
vt -1.529302 -3.215497
vt -1.529302 3.055270
vt 5.285912 4.110285
vt 5.285912 -2.160481
vt 0.990890 0.006489
vt 0.990890 0.989442
vt 0.007937 0.989442
vt 0.007937 0.006489
vt 5.013145 3.326950
vt 5.013145 -3.487179
vt -1.800983 -3.487179
vt -1.800983 3.326950
vt -0.097451 3.326950
vt 0.328432 3.326950
vt 1.180198 3.326950
vt 1.552846 2.901068
vt 1.552846 2.847832
vt 1.552846 2.741361
vt 1.659317 2.741361
vt 1.659317 2.847832
vt 1.659317 2.901068
vt 2.031964 3.326950
vt -1.673000 0.921667
vt -3.152258 0.921667
vt -3.152258 0.948285
vt -3.152258 1.001520
vt -3.152258 1.028137
vt -1.673000 1.028137
vt -4.417877 0.974903
vt -4.417877 0.996693
vt -4.595149 0.996693
vt -4.595149 0.974903
vt -4.240605 2.839718
vt -3.696431 2.837624
vt -3.696431 2.843325
vt -4.240605 2.842471
vt -3.152258 0.921667
vt -3.152258 0.948285
vt -3.696431 0.950699
vt -3.696431 0.926495
vt -0.833297 1.028137
vt -1.673000 1.028137
vt -1.673000 0.921667
vt -0.833297 0.921667
vt -4.240605 0.953113
vt -4.240605 0.931323
vt -4.417877 2.841920
vt -4.595149 2.844123
vt -4.595149 2.846876
vt -4.417877 2.844673
vt -0.833297 1.028137
vt -0.833297 0.921667
vt -3.152258 1.028137
vt -3.152258 1.001520
vt -3.152258 2.835530
vt -3.152258 2.844180
vt -3.696431 2.843325
vt -4.240605 2.842471
vt -4.240605 2.839718
vt -3.696431 2.837624
vt 1.606082 2.844123
vt 1.606082 2.846876
vt 1.627871 2.846876
vt 1.649661 2.846876
vt 1.649661 2.844123
vt 1.627871 2.844123
vt 1.562502 2.844123
vt 1.562502 2.846876
vt 1.584291 2.846876
vt 1.584291 2.844123
vt -0.833297 2.741361
vt -0.833297 2.847832
vt -1.673000 2.846510
vt -1.673000 2.816686
vt -3.696431 0.950699
vt -3.696431 0.926495
vt -4.240605 0.931323
vt -4.240605 0.953113
vt 1.632699 2.835530
vt 1.579463 2.835530
vt 1.579463 2.844180
vt 1.632699 2.844180
vt -4.417877 0.996693
vt -4.417877 0.974903
vt -4.595149 0.974903
vt -4.595149 0.996693
vt -4.417877 2.844673
vt -4.595149 2.846876
vt -4.595149 2.844123
vt -4.417877 2.841920
vt 1.584291 2.839718
vt 1.584291 2.842471
vt -4.417877 0.953113
vt -4.595149 0.953113
vt -4.417877 1.018482
vt -4.595149 1.018482
vt -4.417877 0.953113
vt -4.417877 0.931323
vt -4.595149 0.931323
vt -4.595149 0.953113
vt -3.696431 1.023310
vt -3.696431 0.999106
vt -4.240605 1.018482
vt -4.240605 0.996693
vt -4.240605 0.974903
vt -4.417877 0.931323
vt -4.595149 0.931323
vt -3.696431 1.023310
vt -3.696431 0.999106
vt -4.240605 0.996693
vt -4.240605 1.018482
vt -4.240605 0.974903
vt -4.417877 1.018482
vt -4.595149 1.018482
vt -3.152258 2.835530
vt -3.152258 2.844180
vn 0.0000 -1.0000 -0.0000
vn 0.3379 0.0000 0.9412
vn -0.3379 0.0000 -0.9412
vn 0.0000 1.0000 -0.0000
vn 0.0000 0.0000 -1.0000
vn 0.9048 0.0000 -0.4258
vn 0.9691 0.0000 -0.2468
vn 0.0000 0.0000 1.0000
vn 0.9390 0.0680 -0.3371
vn 0.9390 -0.0680 -0.3371
vn 0.9690 0.0000 -0.2469
vn 0.0000 1.0000 0.0001
vn 0.9412 0.0000 -0.3379
vn -0.3380 0.0000 -0.9412
vn -0.0744 0.0000 -0.9972
vn 0.9022 -0.2847 -0.3239
vn 0.0743 0.0000 0.9972
vn 0.9271 0.0000 -0.3748
vn 0.9538 0.0000 -0.3004
vn 0.9408 0.0282 -0.3378
vn 0.9408 -0.0282 -0.3378
vn -0.1007 0.0000 -0.9949
vn 0.1007 0.0000 0.9949
vn -0.1006 0.0000 -0.9949
vn 0.9022 0.2847 -0.3239
vn 0.7699 0.0000 -0.6381
vn 0.9270 0.0000 -0.3750
vn 0.9408 -0.0282 -0.3377
vn 0.9939 0.0000 0.1102
vn -0.9412 -0.0000 0.3379
vn 0.9412 0.0000 -0.3380
vn -0.5357 0.0000 -0.8444
vn -0.2308 0.0000 -0.9730
vn -0.2309 0.0000 -0.9730
vn 0.9355 0.0000 -0.3533
vn 0.9466 0.0000 -0.3224
vn 0.9411 0.0117 -0.3379
vn 0.9411 -0.0117 -0.3379
vn -0.3871 -0.9115 0.1390
vn 0.3791 0.9153 -0.1361
vn 0.4407 0.0000 0.8977
vn -0.0523 0.9985 0.0188
vn -0.0524 0.9984 0.0188
vn -0.8978 -0.3002 0.3223
vn 0.1238 0.0000 0.9923
vn -0.1271 -0.9908 0.0457
vn -0.3792 -0.9153 0.1361
vn -0.3791 -0.9153 0.1361
vn -0.1271 -0.9908 0.0456
vn 0.4406 0.0000 0.8977
g Picture_S_Cube.001_Marco
usemtl Marco
s off
f 81/1/1 25/2/1 30/3/1 82/4/1
f 1/5/2 2/6/2 85/7/2 88/8/2
f 30/9/2 28/10/2 83/11/2 82/12/2
f 15/13/3 19/14/3 8/15/3 7/16/3
f 21/17/4 84/18/4 83/11/4 28/10/4
f 10/19/1 15/20/1 7/21/1 5/22/1
f 81/1/3 84/18/3 21/17/3 25/2/3
f 76/23/4 67/24/4 58/25/4 62/26/4
f 19/27/4 12/28/4 6/29/4 8/30/4
f 16/31/1 9/32/1 42/33/1 46/34/1
f 13/35/4 18/36/4 47/37/4 43/38/4
f 9/39/2 13/40/2 43/41/2 42/42/2
f 33/43/5 34/44/5 151/45/5 150/46/5
f 23/47/6 26/48/6 25/49/6 21/50/6
f 28/51/7 30/52/7 32/53/7 29/54/7
f 26/48/8 23/47/8 149/55/8 152/56/8
f 21/57/9 28/58/9 29/59/9 23/60/9
f 36/61/4 33/43/4 150/46/4 155/62/4
f 30/63/10 25/64/10 26/65/10 32/66/10
f 32/66/4 26/65/4 152/67/4 153/68/4
f 10/69/11 12/70/11 14/71/11 11/72/11
f 20/73/5 17/74/5 177/75/5 180/76/5
f 11/72/8 14/71/8 173/77/8 174/78/8
f 17/74/6 20/73/6 19/14/6 15/13/6
f 38/79/12 39/80/12 178/81/12 175/82/12
f 11/83/10 17/84/10 15/20/10 10/19/10
f 14/85/4 20/86/4 180/87/4 173/88/4
f 20/86/9 14/85/9 12/28/9 19/27/9
f 12/70/2 10/69/2 5/89/2 6/90/2
f 22/91/13 24/92/13 34/44/13 33/43/13
f 31/93/13 27/94/13 36/61/13 35/95/13
f 27/94/13 22/91/13 33/43/13 36/61/13
f 24/92/13 31/93/13 35/95/13 34/44/13
f 13/96/13 9/97/13 38/79/13 37/98/13
f 16/99/13 18/100/13 40/101/13 39/80/13
f 9/97/13 16/99/13 39/80/13 38/79/13
f 18/100/13 13/96/13 37/98/13 40/101/13
f 31/102/1 24/103/1 44/104/1 48/105/1
f 18/106/14 16/107/14 46/108/14 47/109/14
f 22/110/4 27/111/4 45/112/4 41/113/4
f 24/114/15 22/115/15 41/116/15 44/117/15
f 74/118/16 65/119/16 49/120/16 52/121/16
f 27/122/17 31/123/17 48/124/17 45/125/17
f 68/126/13 75/127/13 55/128/13 54/129/13
f 49/130/18 50/131/18 44/117/18 41/116/18
f 51/132/19 52/133/19 45/125/19 48/124/19
f 52/134/20 49/135/20 41/113/20 45/112/20
f 50/136/21 51/137/21 48/105/21 44/104/21
f 46/34/8 42/33/8 160/138/8 161/139/8
f 43/38/8 47/37/8 164/140/8 157/141/8
f 54/129/8 55/128/8 162/142/8 159/143/8
f 56/144/8 53/145/8 158/146/8 163/147/8
f 67/148/22 70/149/22 59/150/22 58/151/22
f 66/152/1 73/153/1 61/154/1 57/155/1
f 77/156/23 76/157/23 62/158/23 63/159/23
f 71/160/23 66/161/23 57/162/23 60/163/23
f 73/164/24 80/165/24 64/166/24 61/167/24
f 70/168/1 77/169/1 63/170/1 59/171/1
f 69/172/13 68/126/13 54/129/13 53/145/13
f 80/173/4 71/174/4 60/175/4 64/176/4
f 62/177/13 58/178/13 57/179/13 61/180/13
f 59/181/13 63/182/13 64/183/13 60/184/13
f 63/182/13 62/177/13 61/180/13 64/183/13
f 58/178/13 59/181/13 60/184/13 57/179/13
f 78/185/13 69/172/13 53/145/13 56/144/13
f 75/127/13 78/185/13 56/144/13 55/128/13
f 72/186/25 79/187/25 51/188/25 50/189/25
f 79/187/26 74/118/26 52/121/26 51/188/26
f 66/161/19 71/160/19 72/190/19 65/191/19
f 80/165/27 73/164/27 74/192/27 79/193/27
f 73/153/28 66/152/28 65/194/28 74/195/28
f 71/174/20 80/173/20 79/196/20 72/197/20
f 70/149/18 67/148/18 68/198/18 69/199/18
f 76/157/19 77/156/19 78/200/19 75/201/19
f 67/24/20 76/23/20 75/202/20 68/203/20
f 77/169/21 70/168/21 69/204/21 78/205/21
f 65/119/29 72/186/29 50/189/29 49/120/29
f 4/206/30 2/207/30 81/208/30 82/209/30
f 3/210/30 4/206/30 82/209/30 83/211/30
f 2/207/30 1/212/30 84/213/30 81/208/30
f 1/212/30 3/210/30 83/211/30 84/213/30
f 2/214/4 4/215/4 86/216/4 85/217/4
f 3/218/1 1/219/1 88/220/1 92/221/1 90/222/1 91/223/1 89/224/1 87/225/1
f 4/226/3 3/227/3 87/228/3 86/229/3
f 102/230/3 103/231/3 113/232/3 112/233/3
f 121/234/31 143/235/31 127/236/31 118/237/31
f 112/233/3 113/232/3 110/238/3 109/239/3
f 109/239/32 110/238/32 144/240/32 125/241/32 124/242/32 129/243/32
f 148/244/33 141/245/33 128/246/33 131/247/33
f 138/248/34 148/244/34 131/247/34 94/249/34
f 150/46/35 151/45/35 152/250/35 149/251/35
f 154/252/36 153/253/36 156/254/36 155/62/36
f 149/251/37 154/252/37 155/62/37 150/46/37
f 153/253/38 152/250/38 151/45/38 156/254/38
f 29/54/5 32/53/5 153/255/5 154/256/5
f 34/44/1 35/95/1 156/254/1 151/45/1
f 23/60/1 29/59/1 154/257/1 149/258/1
f 35/95/8 36/61/8 155/62/8 156/254/8
f 162/142/8 163/147/8 171/259/8 170/260/8
f 164/261/5 161/262/5 169/263/5 172/264/5
f 161/139/1 160/138/1 168/265/1 169/266/1
f 157/141/4 164/140/4 172/267/4 165/268/4
f 47/109/8 46/108/8 161/262/8 164/261/8
f 55/128/8 56/144/8 163/147/8 162/142/8
f 42/42/8 43/41/8 157/269/8 160/270/8
f 53/145/8 54/129/8 159/143/8 158/146/8
f 166/271/19 167/272/19 168/273/19 165/274/19
f 170/275/18 171/276/18 172/264/18 169/263/18
f 167/277/21 170/278/21 169/266/21 168/265/21
f 171/279/20 166/280/20 165/268/20 172/267/20
f 160/270/8 157/269/8 165/274/8 168/273/8
f 158/146/5 159/143/5 167/281/5 166/282/5
f 163/147/1 158/146/1 166/282/1 171/259/1
f 159/143/4 162/142/4 170/260/4 167/281/4
f 174/283/36 173/284/36 176/285/36 175/82/36
f 178/81/35 179/286/35 180/287/35 177/288/35
f 175/82/38 178/81/38 177/288/38 174/283/38
f 179/286/37 176/285/37 173/284/37 180/287/37
f 39/80/8 40/101/8 179/286/8 178/81/8
f 40/101/1 37/98/1 176/285/1 179/286/1
f 37/98/5 38/79/5 175/82/5 176/285/5
f 17/84/1 11/83/1 174/289/1 177/290/1
g Picture_S_Cube.001_Cuadro.003
usemtl Cuadro.003
f 6/291/13 5/292/13 7/293/13 8/294/13
g Picture_S_Cube.001_Fabric_Rough_01
usemtl Fabric_Rough_01
f 88/295/30 85/296/30 86/297/30 87/298/30 89/299/30 91/300/30 90/301/30 97/302/30 104/303/30 101/304/30 103/305/30 102/306/30 98/307/30 92/308/30
f 90/301/30 92/308/30 98/307/30 97/302/30
f 97/302/30 98/307/30 102/306/30 104/303/30
g Picture_S_Cube.001_Grap.001
usemtl Grap.001
f 116/309/39 108/310/39 138/311/39 139/312/39 110/313/39 113/314/39
f 105/315/40 132/316/40 93/317/40 122/318/40
f 143/319/41 145/320/41 130/321/41 127/322/41
f 111/323/42 94/324/42 131/325/42 99/326/42
f 102/327/43 112/328/43 114/329/43 104/330/43
f 99/326/42 131/325/42 128/331/42 126/332/42
f 124/242/3 125/241/3 135/333/3 115/334/3 117/335/3 106/336/3
f 103/337/44 101/338/44 116/309/44 113/314/44
f 114/329/43 112/328/43 109/339/43 96/340/43 94/324/43 111/323/43
f 108/341/45 111/342/45 99/343/45 126/344/45 123/345/45 137/346/45
f 120/347/30 122/348/30 93/349/30 117/350/30 115/351/30 140/352/30
f 119/353/30 107/354/30 95/355/30 122/348/30 120/347/30 142/356/30
f 101/357/2 104/358/2 114/359/2 116/360/2
f 148/361/46 137/362/46 123/363/46 141/364/46
f 116/360/2 114/359/2 111/342/2 108/341/2
f 139/365/30 138/366/30 94/367/30 96/368/30
f 147/369/47 136/370/47 120/371/47 140/372/47
f 123/345/2 126/344/2 100/373/2 107/374/2 119/375/2 134/376/2
f 141/377/31 121/234/31 118/237/31 128/378/31
f 133/379/40 105/315/40 122/318/40 95/380/40
f 132/316/40 106/381/40 117/382/40 93/317/40
f 146/383/48 134/384/48 119/385/48 142/386/48
f 96/340/42 109/339/42 129/387/42 130/388/42
f 130/388/42 129/387/42 124/389/42 127/390/42
f 118/391/40 127/390/40 132/316/40 105/315/40
f 127/390/40 124/389/40 106/381/40 132/316/40
f 100/392/40 133/379/40 95/380/40 107/393/40
f 126/332/40 128/331/40 133/379/40 100/392/40
f 128/331/40 118/391/40 105/315/40 133/379/40
f 144/394/49 145/395/49 143/396/49 125/397/49
f 110/313/49 139/312/49 145/395/49 144/394/49
f 136/370/48 146/383/48 142/386/48 120/371/48
f 121/398/48 141/364/48 146/383/48 136/370/48
f 141/364/48 123/363/48 134/384/48 146/383/48
f 135/399/48 147/369/48 140/372/48 115/400/48
f 125/397/48 143/396/48 147/369/48 135/399/48
f 143/396/48 121/398/48 136/370/48 147/369/48
f 145/320/50 139/401/50 96/402/50 130/321/50
f 138/311/49 108/310/49 137/362/49 148/361/49
